<svg id="visual" viewBox="0 0 960 540" width="960" height="540" xmlns="http://www.w3.org/2000/svg" xmlns:xlink="http://www.w3.org/1999/xlink" version="1.1"><rect x="0" y="0" width="960" height="540" fill="#18191a"></rect><path d="M0 53L12.3 56.3C24.7 59.7 49.3 66.3 74 70.5C98.7 74.7 123.3 76.3 148 68.8C172.7 61.3 197.3 44.7 221.8 32.3C246.3 20 270.7 12 295.2 13.2C319.7 14.3 344.3 24.7 369 30.7C393.7 36.7 418.3 38.3 443 42.2C467.7 46 492.3 52 517 58.3C541.7 64.7 566.3 71.3 591 73C615.7 74.7 640.3 71.3 664.8 60.5C689.3 49.7 713.7 31.3 738.2 22.2C762.7 13 787.3 13 812 11.5C836.7 10 861.3 7 886 7.8C910.7 8.7 935.3 13.3 947.7 15.7L960 18L960 541L947.7 541C935.3 541 910.7 541 886 541C861.3 541 836.7 541 812 541C787.3 541 762.7 541 738.2 541C713.7 541 689.3 541 664.8 541C640.3 541 615.7 541 591 541C566.3 541 541.7 541 517 541C492.3 541 467.7 541 443 541C418.3 541 393.7 541 369 541C344.3 541 319.7 541 295.2 541C270.7 541 246.3 541 221.8 541C197.3 541 172.7 541 148 541C123.3 541 98.7 541 74 541C49.3 541 24.7 541 12.3 541L0 541Z" fill="#18191a"></path><path d="M0 96L12.3 93C24.7 90 49.3 84 74 81.7C98.7 79.3 123.3 80.7 148 75.7C172.7 70.7 197.3 59.3 221.8 52.8C246.3 46.3 270.7 44.7 295.2 44.7C319.7 44.7 344.3 46.3 369 57.8C393.7 69.3 418.3 90.7 443 103C467.7 115.3 492.3 118.7 517 107C541.7 95.3 566.3 68.7 591 66.8C615.7 65 640.3 88 664.8 99.8C689.3 111.7 713.7 112.3 738.2 107.2C762.7 102 787.3 91 812 88.2C836.7 85.3 861.3 90.7 886 88C910.7 85.3 935.3 74.7 947.7 69.3L960 64L960 541L947.7 541C935.3 541 910.7 541 886 541C861.3 541 836.7 541 812 541C787.3 541 762.7 541 738.2 541C713.7 541 689.3 541 664.8 541C640.3 541 615.7 541 591 541C566.3 541 541.7 541 517 541C492.3 541 467.7 541 443 541C418.3 541 393.7 541 369 541C344.3 541 319.7 541 295.2 541C270.7 541 246.3 541 221.8 541C197.3 541 172.7 541 148 541C123.3 541 98.7 541 74 541C49.3 541 24.7 541 12.3 541L0 541Z" fill="#1b1c1d"></path><path d="M0 82L12.3 88.7C24.7 95.3 49.3 108.7 74 113C98.7 117.3 123.3 112.7 148 106.5C172.7 100.3 197.3 92.7 221.8 89.8C246.3 87 270.7 89 295.2 90.7C319.7 92.3 344.3 93.7 369 101.3C393.7 109 418.3 123 443 133.3C467.7 143.7 492.3 150.3 517 150C541.7 149.7 566.3 142.3 591 140.2C615.7 138 640.3 141 664.8 140.3C689.3 139.7 713.7 135.3 738.2 127.8C762.7 120.3 787.3 109.7 812 103.5C836.7 97.3 861.3 95.7 886 106C910.7 116.3 935.3 138.7 947.7 149.8L960 161L960 541L947.7 541C935.3 541 910.7 541 886 541C861.3 541 836.7 541 812 541C787.3 541 762.7 541 738.2 541C713.7 541 689.3 541 664.8 541C640.3 541 615.7 541 591 541C566.3 541 541.7 541 517 541C492.3 541 467.7 541 443 541C418.3 541 393.7 541 369 541C344.3 541 319.7 541 295.2 541C270.7 541 246.3 541 221.8 541C197.3 541 172.7 541 148 541C123.3 541 98.7 541 74 541C49.3 541 24.7 541 12.3 541L0 541Z" fill="#1e1f21"></path><path d="M0 138L12.3 146.8C24.7 155.7 49.3 173.3 74 183.2C98.7 193 123.3 195 148 186.8C172.7 178.7 197.3 160.3 221.8 160.8C246.3 161.3 270.7 180.7 295.2 188.7C319.7 196.7 344.3 193.3 369 191C393.7 188.7 418.3 187.3 443 180.5C467.7 173.7 492.3 161.3 517 156.8C541.7 152.3 566.3 155.7 591 156.7C615.7 157.7 640.3 156.3 664.8 152.7C689.3 149 713.7 143 738.2 145.3C762.7 147.7 787.3 158.3 812 164.2C836.7 170 861.3 171 886 175.2C910.7 179.3 935.3 186.7 947.7 190.3L960 194L960 541L947.7 541C935.3 541 910.7 541 886 541C861.3 541 836.7 541 812 541C787.3 541 762.7 541 738.2 541C713.7 541 689.3 541 664.8 541C640.3 541 615.7 541 591 541C566.3 541 541.7 541 517 541C492.3 541 467.7 541 443 541C418.3 541 393.7 541 369 541C344.3 541 319.7 541 295.2 541C270.7 541 246.3 541 221.8 541C197.3 541 172.7 541 148 541C123.3 541 98.7 541 74 541C49.3 541 24.7 541 12.3 541L0 541Z" fill="#222324"></path><path d="M0 190L12.3 195.2C24.7 200.3 49.3 210.7 74 217.2C98.7 223.7 123.3 226.3 148 229.7C172.7 233 197.3 237 221.8 232.5C246.3 228 270.7 215 295.2 205.3C319.7 195.7 344.3 189.3 369 190.2C393.7 191 418.3 199 443 200.5C467.7 202 492.3 197 517 192.3C541.7 187.7 566.3 183.3 591 190C615.7 196.7 640.3 214.3 664.8 219.8C689.3 225.3 713.7 218.7 738.2 217.7C762.7 216.7 787.3 221.3 812 226C836.7 230.7 861.3 235.3 886 233.5C910.7 231.7 935.3 223.3 947.7 219.2L960 215L960 541L947.7 541C935.3 541 910.7 541 886 541C861.3 541 836.7 541 812 541C787.3 541 762.7 541 738.2 541C713.7 541 689.3 541 664.8 541C640.3 541 615.7 541 591 541C566.3 541 541.7 541 517 541C492.3 541 467.7 541 443 541C418.3 541 393.7 541 369 541C344.3 541 319.7 541 295.2 541C270.7 541 246.3 541 221.8 541C197.3 541 172.7 541 148 541C123.3 541 98.7 541 74 541C49.3 541 24.7 541 12.3 541L0 541Z" fill="#252628"></path><path d="M0 219L12.3 220C24.7 221 49.3 223 74 225C98.7 227 123.3 229 148 233.7C172.7 238.3 197.3 245.7 221.8 245.2C246.3 244.7 270.7 236.3 295.2 238.3C319.7 240.3 344.3 252.7 369 256.3C393.7 260 418.3 255 443 255.7C467.7 256.3 492.3 262.7 517 266.2C541.7 269.7 566.3 270.3 591 267.3C615.7 264.3 640.3 257.7 664.8 249.8C689.3 242 713.7 233 738.2 227.7C762.7 222.3 787.3 220.7 812 228.5C836.7 236.3 861.3 253.7 886 258C910.7 262.3 935.3 253.7 947.7 249.3L960 245L960 541L947.7 541C935.3 541 910.7 541 886 541C861.3 541 836.7 541 812 541C787.3 541 762.7 541 738.2 541C713.7 541 689.3 541 664.8 541C640.3 541 615.7 541 591 541C566.3 541 541.7 541 517 541C492.3 541 467.7 541 443 541C418.3 541 393.7 541 369 541C344.3 541 319.7 541 295.2 541C270.7 541 246.3 541 221.8 541C197.3 541 172.7 541 148 541C123.3 541 98.7 541 74 541C49.3 541 24.7 541 12.3 541L0 541Z" fill="#28292b"></path><path d="M0 270L12.3 275.7C24.7 281.3 49.3 292.7 74 302.5C98.7 312.3 123.3 320.7 148 324.5C172.7 328.3 197.3 327.7 221.8 319C246.3 310.3 270.7 293.7 295.2 283.3C319.7 273 344.3 269 369 271.7C393.7 274.3 418.3 283.7 443 282.8C467.7 282 492.3 271 517 270.5C541.7 270 566.3 280 591 278.7C615.7 277.3 640.3 264.7 664.8 271.3C689.3 278 713.7 304 738.2 314.5C762.7 325 787.3 320 812 315.5C836.7 311 861.3 307 886 300.7C910.7 294.3 935.3 285.7 947.7 281.3L960 277L960 541L947.7 541C935.3 541 910.7 541 886 541C861.3 541 836.7 541 812 541C787.3 541 762.7 541 738.2 541C713.7 541 689.3 541 664.8 541C640.3 541 615.7 541 591 541C566.3 541 541.7 541 517 541C492.3 541 467.7 541 443 541C418.3 541 393.7 541 369 541C344.3 541 319.7 541 295.2 541C270.7 541 246.3 541 221.8 541C197.3 541 172.7 541 148 541C123.3 541 98.7 541 74 541C49.3 541 24.7 541 12.3 541L0 541Z" fill="#2c2d2f"></path><path d="M0 355L12.3 345.7C24.7 336.3 49.3 317.7 74 311C98.7 304.3 123.3 309.7 148 319.5C172.7 329.3 197.3 343.7 221.8 351.8C246.3 360 270.7 362 295.2 351C319.7 340 344.3 316 369 313.8C393.7 311.7 418.3 331.3 443 342.2C467.7 353 492.3 355 517 346.8C541.7 338.7 566.3 320.3 591 309.3C615.7 298.3 640.3 294.7 664.8 302.5C689.3 310.3 713.7 329.7 738.2 341C762.7 352.3 787.3 355.7 812 353.2C836.7 350.7 861.3 342.3 886 336C910.7 329.7 935.3 325.3 947.7 323.2L960 321L960 541L947.7 541C935.3 541 910.7 541 886 541C861.3 541 836.7 541 812 541C787.3 541 762.7 541 738.2 541C713.7 541 689.3 541 664.8 541C640.3 541 615.7 541 591 541C566.3 541 541.7 541 517 541C492.3 541 467.7 541 443 541C418.3 541 393.7 541 369 541C344.3 541 319.7 541 295.2 541C270.7 541 246.3 541 221.8 541C197.3 541 172.7 541 148 541C123.3 541 98.7 541 74 541C49.3 541 24.7 541 12.3 541L0 541Z" fill="#2f3032"></path><path d="M0 338L12.3 340.3C24.7 342.7 49.3 347.3 74 357.8C98.7 368.3 123.3 384.7 148 394.7C172.7 404.7 197.3 408.3 221.8 397.2C246.3 386 270.7 360 295.2 356.3C319.7 352.7 344.3 371.3 369 374.7C393.7 378 418.3 366 443 363.7C467.7 361.3 492.3 368.7 517 374.3C541.7 380 566.3 384 591 390.2C615.7 396.3 640.3 404.7 664.8 405.2C689.3 405.7 713.7 398.3 738.2 388.3C762.7 378.3 787.3 365.7 812 362.2C836.7 358.7 861.3 364.3 886 367.7C910.7 371 935.3 372 947.7 372.5L960 373L960 541L947.7 541C935.3 541 910.7 541 886 541C861.3 541 836.7 541 812 541C787.3 541 762.7 541 738.2 541C713.7 541 689.3 541 664.8 541C640.3 541 615.7 541 591 541C566.3 541 541.7 541 517 541C492.3 541 467.7 541 443 541C418.3 541 393.7 541 369 541C344.3 541 319.7 541 295.2 541C270.7 541 246.3 541 221.8 541C197.3 541 172.7 541 148 541C123.3 541 98.7 541 74 541C49.3 541 24.7 541 12.3 541L0 541Z" fill="#333336"></path><path d="M0 443L12.3 442.3C24.7 441.7 49.3 440.3 74 428.8C98.7 417.3 123.3 395.7 148 397.7C172.7 399.7 197.3 425.3 221.8 431.2C246.3 437 270.7 423 295.2 412.7C319.7 402.3 344.3 395.7 369 394C393.7 392.3 418.3 395.7 443 405.8C467.7 416 492.3 433 517 438.3C541.7 443.7 566.3 437.3 591 435C615.7 432.7 640.3 434.3 664.8 431.3C689.3 428.3 713.7 420.7 738.2 423.8C762.7 427 787.3 441 812 442C836.7 443 861.3 431 886 430.3C910.7 429.7 935.3 440.3 947.7 445.7L960 451L960 541L947.7 541C935.3 541 910.7 541 886 541C861.3 541 836.7 541 812 541C787.3 541 762.7 541 738.2 541C713.7 541 689.3 541 664.8 541C640.3 541 615.7 541 591 541C566.3 541 541.7 541 517 541C492.3 541 467.7 541 443 541C418.3 541 393.7 541 369 541C344.3 541 319.7 541 295.2 541C270.7 541 246.3 541 221.8 541C197.3 541 172.7 541 148 541C123.3 541 98.7 541 74 541C49.3 541 24.7 541 12.3 541L0 541Z" fill="#363639"></path><path d="M0 424L12.3 431.2C24.7 438.3 49.3 452.7 74 457.5C98.7 462.3 123.3 457.7 148 456C172.7 454.3 197.3 455.7 221.8 453.3C246.3 451 270.7 445 295.2 441.8C319.7 438.7 344.3 438.3 369 446C393.7 453.7 418.3 469.3 443 475.2C467.7 481 492.3 477 517 470.3C541.7 463.7 566.3 454.3 591 456.5C615.7 458.7 640.3 472.3 664.8 468.3C689.3 464.3 713.7 442.7 738.2 433.8C762.7 425 787.3 429 812 441C836.7 453 861.3 473 886 471.7C910.7 470.3 935.3 447.7 947.7 436.3L960 425L960 541L947.7 541C935.3 541 910.7 541 886 541C861.3 541 836.7 541 812 541C787.3 541 762.7 541 738.2 541C713.7 541 689.3 541 664.8 541C640.3 541 615.7 541 591 541C566.3 541 541.7 541 517 541C492.3 541 467.7 541 443 541C418.3 541 393.7 541 369 541C344.3 541 319.7 541 295.2 541C270.7 541 246.3 541 221.8 541C197.3 541 172.7 541 148 541C123.3 541 98.7 541 74 541C49.3 541 24.7 541 12.3 541L0 541Z" fill="#3a3a3d"></path><path d="M0 492L12.3 489.8C24.7 487.7 49.3 483.3 74 486.7C98.7 490 123.3 501 148 499.5C172.7 498 197.3 484 221.8 481.5C246.3 479 270.7 488 295.2 488C319.7 488 344.3 479 369 484.2C393.7 489.3 418.3 508.7 443 516.2C467.7 523.7 492.3 519.3 517 515C541.7 510.7 566.3 506.3 591 503.8C615.7 501.3 640.3 500.7 664.8 498.3C689.3 496 713.7 492 738.2 485.3C762.7 478.7 787.3 469.3 812 474.8C836.7 480.3 861.3 500.7 886 509.2C910.7 517.7 935.3 514.3 947.7 512.7L960 511L960 541L947.7 541C935.3 541 910.7 541 886 541C861.3 541 836.7 541 812 541C787.3 541 762.7 541 738.2 541C713.7 541 689.3 541 664.8 541C640.3 541 615.7 541 591 541C566.3 541 541.7 541 517 541C492.3 541 467.7 541 443 541C418.3 541 393.7 541 369 541C344.3 541 319.7 541 295.2 541C270.7 541 246.3 541 221.8 541C197.3 541 172.7 541 148 541C123.3 541 98.7 541 74 541C49.3 541 24.7 541 12.3 541L0 541Z" fill="#3e3d40"></path></svg>